<svg id="eEs7ZRluHbS1" xmlns="http://www.w3.org/2000/svg" xmlns:xlink="http://www.w3.org/1999/xlink" viewBox="0 0 630 610" shape-rendering="geometricPrecision" text-rendering="geometricPrecision" style="background-color:none"><defs><linearGradient id="eEs7ZRluHbS3-fill" x1="1.636801" y1="-0.552278" x2="0.401187" y2="0.886182" spreadMethod="pad" gradientUnits="objectBoundingBox" gradientTransform="translate(0 0)"><stop id="eEs7ZRluHbS3-fill-0" offset="0%" stop-color="#ff7e7e"/><stop id="eEs7ZRluHbS3-fill-1" offset="100%" stop-color="#2d3a79"/></linearGradient><linearGradient id="eEs7ZRluHbS4-fill" x1="1.636801" y1="-0.552278" x2="0.401187" y2="0.886182" spreadMethod="pad" gradientUnits="objectBoundingBox" gradientTransform="translate(0 0)"><stop id="eEs7ZRluHbS4-fill-0" offset="0%" stop-color="#ff7ec7"/><stop id="eEs7ZRluHbS4-fill-1" offset="100%" stop-color="#2d3a79"/></linearGradient><linearGradient id="eEs7ZRluHbS5-fill" x1="1.636801" y1="-0.552278" x2="0.401187" y2="0.886182" spreadMethod="pad" gradientUnits="objectBoundingBox" gradientTransform="translate(0 0)"><stop id="eEs7ZRluHbS5-fill-0" offset="0%" stop-color="#b1156f"/><stop id="eEs7ZRluHbS5-fill-1" offset="100%" stop-color="#2d3a79"/></linearGradient></defs><g transform="matrix(1.026494 0 0 1.043961-38.888286 51.046587)"><path d="M385.511422,194.214679c14.128767,44.06861,64.768525,148.656461,50.078217,182.315692s-172.880449,51.350628-222.51939,109.548007-161.911333-209.511959-178.015512-234.501203c139.939766,2.221266,240.485832-295.48295,350.456685-57.362496Z" transform="translate(119.134545-59.483808)" fill="url(#eEs7ZRluHbS3-fill)" stroke-width="1.28"/><path d="M385.950699,188.244734c18.520077,13.644275,64.387582,154.568072,49.63894,188.285637s-172.880449,51.350628-222.51939,109.548007-164.187914-207.507272-180.292093-232.496516c139.939766,2.221266,231.642722-281.009768,353.172543-65.337128Z" transform="translate(87.829157-82.610759)" opacity="0.75" fill="url(#eEs7ZRluHbS4-fill)" stroke-width="1.28"/><path d="M385.950699,188.244734c18.520077,13.644275,67.024342,164.898681,52.2757,198.616246s-184.775947,55.355057-234.414888,113.552436-154.929176-221.84231-171.033355-246.831554c139.939766,2.221266,281.606415-318.704107,353.172543-65.337128Z" transform="matrix(.844492 0 0 0.838781 181.139506-11.219656)" opacity="0.75" fill="url(#eEs7ZRluHbS5-fill)" stroke-width="1.28"/></g></svg>
